<?xml version="1.0" encoding="utf-8"?>
<!-- Generator: Adobe Illustrator 24.0.0, SVG Export Plug-In . SVG Version: 6.00 Build 0)  -->
<svg version="1.1" id="Layer_1" xmlns="http://www.w3.org/2000/svg" xmlns:xlink="http://www.w3.org/1999/xlink" x="0px" y="0px"
	 viewBox="0 0 220 220" style="enable-background:new 0 0 220 220;" xml:space="preserve">
<style type="text/css">
	.st0{fill:#482B78;}
	.st1{fill:#FFFFFF;}
</style>
<rect x="0" class="st0" width="220" height="220"/>
<g>
	<polygon class="st1" points="120.3,103.9 109.4,93 98.5,103.9 87.7,93 98.5,82.1 109.4,71.2 120.3,82.1 131.2,93 	"/>
	<polygon class="st1" points="155.1,132 141.2,118.1 127.2,132 113.3,118.1 127.2,104.2 141.2,90.3 155.1,104.2 169,118.1 	"/>
	<polygon class="st1" points="92.5,132 78.6,118.1 64.7,132 50.7,118.1 64.7,104.2 78.6,90.3 92.5,104.2 106.4,118.1 	"/>
	<polygon class="st1" points="17.8,26.1 17.8,42.9 17.8,177.1 17.8,193.9 34.5,193.9 59.7,193.9 59.7,177.1 34.5,177.1 34.5,42.9 
		59.7,42.9 59.7,26.1 34.5,26.1 	"/>
	<polygon class="st1" points="185.5,26.1 160.3,26.1 160.3,42.9 185.5,42.9 185.5,177.1 160.3,177.1 160.3,193.9 185.5,193.9 
		202.2,193.9 202.2,177.1 202.2,42.9 202.2,26.1 	"/>
	<rect x="76.5" y="177.1" class="st1" width="67.1" height="16.8"/>
</g>
</svg>
