<svg id="Layer_1" data-name="Layer 1" xmlns="http://www.w3.org/2000/svg" viewBox="0 0 302.13 302.13"><defs><style>.cls-1{fill:#482b78;}</style></defs><title>purple_logo</title><polygon class="cls-1" points="161.4 117.22 150.51 106.33 139.62 117.22 128.74 106.33 139.62 95.44 150.51 84.56 161.4 95.44 172.28 106.33 161.4 117.22"/><polygon class="cls-1" points="196.13 145.39 182.22 131.48 168.31 145.39 154.4 131.48 168.31 117.57 182.22 103.66 196.13 117.57 210.04 131.48 196.13 145.39"/><polygon class="cls-1" points="133.55 145.39 119.64 131.48 105.72 145.39 91.81 131.48 105.72 117.57 119.64 103.66 133.55 117.57 147.46 131.48 133.55 145.39"/><polygon class="cls-1" points="58.83 39.51 58.83 56.28 58.83 190.44 58.83 207.21 75.6 207.21 100.75 207.21 100.75 190.44 75.6 190.44 75.6 56.28 100.75 56.28 100.75 39.51 75.6 39.51 58.83 39.51"/><polygon class="cls-1" points="226.53 39.51 201.37 39.51 201.37 56.28 226.53 56.28 226.53 190.44 201.37 190.44 201.37 207.21 226.53 207.21 243.3 207.21 243.3 190.44 243.3 56.28 243.3 39.51 226.53 39.51"/><rect class="cls-1" x="117.52" y="190.44" width="67.08" height="16.77"/><path class="cls-1" d="M102.14,224.74h7v27h-7v-3c-1.68,2.55-4.38,3.79-8.06,3.79a9.79,9.79,0,0,1-7.36-3,11.43,11.43,0,0,1-2.87-8.23V224.74h7v15.74c0,3.63,2.11,5.58,5.36,5.58,3.62,0,6-2.22,6-6.71Z"/><path class="cls-1" d="M116.32,251.14a4.59,4.59,0,1,1,6.49,0A4.59,4.59,0,0,1,116.32,251.14Z"/><path class="cls-1" d="M132.66,248.44A14.29,14.29,0,0,1,142.89,224,13.46,13.46,0,0,1,155,231l-6,3.52a6.7,6.7,0,0,0-6.17-3.63,7.1,7.1,0,0,0-7.26,7.41,7.42,7.42,0,0,0,2.06,5.31,7.07,7.07,0,0,0,5.2,2.05,6.67,6.67,0,0,0,6.22-3.57l6.06,3.47a14.41,14.41,0,0,1-22.46,2.92Z"/><path class="cls-1" d="M184.07,228.14a15.16,15.16,0,0,1,0,20.3,12.19,12.19,0,0,1-9.3,4.11c-3.79,0-6.71-1.3-8.77-4v14h-7V224.74h7v3.19c2.06-2.65,5-4,8.77-4A12.24,12.24,0,0,1,184.07,228.14Zm-10.6,17.76a7.23,7.23,0,0,0,5.35-2.12,7.43,7.43,0,0,0,2.17-5.52,7.23,7.23,0,0,0-2.17-5.46,7.69,7.69,0,0,0-10.71,0,7.42,7.42,0,0,0-2.11,5.46,7.62,7.62,0,0,0,2.11,5.52A7.26,7.26,0,0,0,173.47,245.9Z"/><path class="cls-1" d="M195.55,248.44A14.29,14.29,0,0,1,205.78,224a13.47,13.47,0,0,1,12.12,7l-6,3.52a6.69,6.69,0,0,0-6.17-3.63,7.09,7.09,0,0,0-7.25,7.41,7.37,7.37,0,0,0,2.06,5.31,7,7,0,0,0,5.19,2.05,6.66,6.66,0,0,0,6.22-3.57l6.07,3.47a14.41,14.41,0,0,1-22.46,2.92Z"/></svg>