<svg id="Layer_1" data-name="Layer 1" xmlns="http://www.w3.org/2000/svg" viewBox="0 0 302.13 302.13"><defs><style>.cls-1{fill:#fff;}</style></defs><title>white_logo</title><polygon class="cls-1" points="162.15 114.73 150.47 103.05 138.78 114.73 127.1 103.05 138.78 91.36 150.47 79.67 162.15 91.36 173.84 103.05 162.15 114.73"/><polygon class="cls-1" points="199.44 144.98 184.5 130.05 169.57 144.98 154.64 130.05 169.57 115.12 184.5 100.19 199.44 115.12 214.37 130.05 199.44 144.98"/><polygon class="cls-1" points="132.26 144.98 117.33 130.05 102.4 144.98 87.47 130.05 102.4 115.12 117.33 100.19 132.26 115.12 147.19 130.05 132.26 144.98"/><polygon class="cls-1" points="52.06 31.33 52.06 49.33 52.06 193.33 52.06 211.33 70.06 211.33 97.06 211.33 97.06 193.33 70.06 193.33 70.06 49.33 97.06 49.33 97.06 31.33 70.06 31.33 52.06 31.33"/><polygon class="cls-1" points="232.06 31.33 205.06 31.33 205.06 49.33 232.06 49.33 232.06 193.33 205.06 193.33 205.06 211.33 232.06 211.33 250.06 211.33 250.06 193.33 250.06 49.33 250.06 31.33 232.06 31.33"/><rect class="cls-1" x="115.06" y="193.33" width="72" height="18"/><path class="cls-1" d="M98.55,230.14H106v29H98.55v-3.25c-1.8,2.73-4.7,4.07-8.65,4.07a10.5,10.5,0,0,1-7.9-3.2c-2-2.15-3.08-5.05-3.08-8.83V230.14h7.49V247c0,3.9,2.27,6,5.75,6,3.89,0,6.39-2.38,6.39-7.21Z"/><path class="cls-1" d="M113.77,258.49a4.93,4.93,0,1,1,7,0A4.94,4.94,0,0,1,113.77,258.49Z"/><path class="cls-1" d="M131.31,255.58a15.33,15.33,0,0,1,11-26.25,14.45,14.45,0,0,1,13,7.49l-6.45,3.78a7.16,7.16,0,0,0-6.62-3.9,7.61,7.61,0,0,0-7.78,8,7.89,7.89,0,0,0,2.21,5.69,7.53,7.53,0,0,0,5.57,2.21,7.16,7.16,0,0,0,6.68-3.83l6.51,3.72a15.46,15.46,0,0,1-24.11,3.13Z"/><path class="cls-1" d="M186.5,233.8a16.28,16.28,0,0,1,0,21.78,13.09,13.09,0,0,1-10,4.42c-4.06,0-7.2-1.4-9.41-4.24v15H159.6V230.14h7.49v3.43c2.21-2.85,5.35-4.24,9.41-4.24A13.17,13.17,0,0,1,186.5,233.8Zm-11.39,19a7.79,7.79,0,0,0,5.75-2.26,8,8,0,0,0,2.33-5.93,7.81,7.81,0,0,0-2.33-5.87,8.29,8.29,0,0,0-11.5,0,8,8,0,0,0-2.27,5.87,8.22,8.22,0,0,0,2.27,5.93A7.79,7.79,0,0,0,175.11,252.85Z"/><path class="cls-1" d="M198.81,255.58a15.33,15.33,0,0,1,11-26.25,14.46,14.46,0,0,1,13,7.49l-6.45,3.78a7.17,7.17,0,0,0-6.62-3.9,7.61,7.61,0,0,0-7.78,8,7.93,7.93,0,0,0,2.2,5.69,7.57,7.57,0,0,0,5.58,2.21,7.16,7.16,0,0,0,6.68-3.83l6.51,3.72a15.46,15.46,0,0,1-24.11,3.13Z"/></svg>