<?xml version="1.0" encoding="UTF-8"?>
<svg id="Layer_2" data-name="Layer 2" xmlns="http://www.w3.org/2000/svg" xmlns:xlink="http://www.w3.org/1999/xlink" viewBox="0 0 353.83 234.27">
  <defs>
    <style>
      .cls-1 {
        fill: none;
        stroke: #231f20;
        stroke-linecap: round;
        stroke-linejoin: round;
      }

      .cls-2 {
        fill: #cbf1f5;
      }

      .cls-3 {
        filter: url(#outer-glow-1);
      }

      .cls-4 {
        fill: #a6e3e9;
      }

      .cls-5 {
        fill: #71c9ce;
      }
    </style>
    <filter id="outer-glow-1" filterUnits="userSpaceOnUse">
      <feOffset dx="0" dy="0"/>
      <feGaussianBlur result="blur" stdDeviation="1"/>
      <feFlood flood-color="#5ed1d3" flood-opacity=".75"/>
      <feComposite in2="blur" operator="in"/>
      <feComposite in="SourceGraphic"/>
    </filter>
  </defs>
  <g id="Components">
    <g id="Step_up_to_your_game" data-name="Step up to your game" class="cls-3">
      <g>
        <g>
          <path class="cls-2" d="M131.6,76.03h0s-5.75-3.33-5.75-3.33h0l-5.76-3.32v33.23l5.76,3.32v-13.29h0l5.75,3.32,5.76-3.32v-13.29l-5.76-3.32Zm0,13.29l-5.75-3.32h0v-6.65l5.76,3.32v6.65Z"/>
          <polygon class="cls-5" points="143.11 76.03 143.11 89.33 137.36 92.65 137.36 79.36 137.36 79.36 143.11 76.03"/>
          <polygon class="cls-5" points="131.6 95.97 131.6 102.62 125.84 105.94 125.84 92.65 125.85 92.65 131.6 95.97"/>
          <polygon class="cls-4" points="143.11 76.03 143.11 76.03 137.36 79.36 137.36 79.36 131.6 76.03 131.6 76.03 125.85 72.71 125.84 72.71 120.09 69.39 125.84 66.06 131.6 69.39 131.61 69.39 137.36 72.71 143.11 76.03"/>
          <polygon class="cls-5" points="131.59 82.69 131.59 82.69 125.85 86 125.85 79.38 131.59 82.69"/>
          <polygon class="cls-4" points="125.85 86 125.85 86 131.59 89.32 131.59 82.69 125.85 86"/>
        </g>
        <g>
          <polygon class="cls-4" points="108.61 56.19 102.87 59.5 97.14 56.19 102.87 52.88 108.61 56.19"/>
          <polygon class="cls-4" points="120.09 62.82 114.35 66.13 108.61 62.82 114.35 59.5 120.09 62.82"/>
          <polygon class="cls-5" points="108.61 56.19 108.61 82.69 108.61 82.69 102.87 86 102.87 59.5 108.61 56.19"/>
          <polygon class="cls-2" points="114.35 66.13 114.35 99.26 108.61 95.95 108.61 95.95 102.87 92.63 102.87 92.63 97.14 89.32 97.14 56.19 102.87 59.5 102.87 86.01 108.61 89.32 108.61 62.82 114.35 66.13"/>
          <polygon class="cls-5" points="120.09 62.82 120.09 95.95 114.35 99.26 114.35 66.13 120.09 62.82"/>
          <polygon class="cls-4" points="102.87 86 102.87 86.01 108.61 89.32 108.61 82.69 102.87 86"/>
        </g>
      </g>
      <g>
        <g>
          <polygon class="cls-5" points="23.03 6.65 23.03 13.3 17.27 16.62 17.27 9.97 23.03 6.65"/>
          <polygon class="cls-4" points="23.03 6.65 17.27 9.97 11.52 6.65 11.51 6.65 5.76 3.33 11.51 0 11.51 0 11.52 0 17.27 3.33 23.03 6.65"/>
          <polygon class="cls-4" points="23.03 19.94 17.27 23.26 11.52 19.94 11.51 19.94 5.76 16.62 11.51 13.3 11.52 13.3 17.27 16.62 23.03 19.94"/>
          <polygon class="cls-4" points="11.51 26.58 11.51 33.23 5.76 29.91 5.76 29.91 0 26.59 5.76 23.27 5.76 23.27 11.51 26.58"/>
          <polygon class="cls-5" points="23.03 19.94 23.03 33.23 17.27 36.56 17.27 23.26 23.03 19.94"/>
          <polygon class="cls-5" points="11.51 13.29 11.51 13.3 5.77 16.61 5.77 9.98 11.51 13.29"/>
          <polygon class="cls-2" points="11.51 13.3 11.51 13.29 5.76 9.97 5.76 9.97 5.76 16.62 5.76 16.62 11.51 19.94 11.52 19.94 17.27 23.26 17.27 36.56 11.51 39.88 5.76 36.56 0 33.24 0 26.59 0 26.59 5.76 29.91 5.76 29.91 11.51 33.23 11.51 26.58 5.76 23.27 5.76 23.27 5.76 23.26 0 19.94 0 19.94 0 6.65 0 6.65 5.76 3.33 5.76 3.33 11.51 6.65 11.52 6.65 17.27 9.97 17.27 16.62 11.52 13.3 11.51 13.3"/>
        </g>
        <g>
          <polygon class="cls-4" points="69.08 33.23 63.32 36.56 57.56 33.23 51.81 29.91 46.05 26.59 51.81 23.26 57.56 26.59 63.32 29.91 69.08 33.23"/>
          <polygon class="cls-2" points="51.81 36.56 51.81 43.2 57.56 46.53 63.32 49.85 63.32 56.5 57.56 53.17 51.81 49.85 51.81 56.5 57.56 59.82 57.56 59.82 63.32 63.14 63.32 69.79 63.32 69.79 57.56 66.47 57.56 66.47 51.81 63.14 51.8 63.14 46.05 59.82 46.05 26.59 51.81 29.91 57.56 33.23 63.32 36.56 63.32 43.2 57.56 39.88 51.81 36.56"/>
          <polygon class="cls-5" points="69.08 33.23 69.08 39.88 63.32 43.2 63.32 36.56 69.08 33.23"/>
          <polygon class="cls-5" points="69.08 46.53 69.08 53.17 63.32 56.5 63.32 49.85 69.08 46.53"/>
          <polygon class="cls-5" points="69.08 59.82 69.08 66.47 63.32 69.79 63.32 63.14 69.08 59.82"/>
          <polygon class="cls-4" points="69.08 59.82 63.32 63.14 57.56 59.82 57.56 59.82 51.81 56.5 57.56 53.17 63.32 56.5 69.08 59.82"/>
          <polygon class="cls-4" points="69.08 46.53 63.32 49.85 57.56 46.53 51.81 43.2 57.56 39.88 63.32 43.2 69.08 46.53"/>
          <polygon class="cls-5" points="57.55 39.88 57.55 39.88 51.82 43.2 51.82 36.57 57.55 39.88"/>
          <polygon class="cls-5" points="57.55 53.18 57.55 53.18 51.82 56.49 51.82 49.87 57.55 53.18"/>
        </g>
        <g>
          <polygon class="cls-4" points="46.05 19.94 46.05 19.95 40.3 23.27 34.54 19.94 28.78 16.62 23.03 13.3 23.03 13.29 28.78 9.97 34.54 13.3 40.3 16.62 46.05 19.94"/>
          <polygon class="cls-5" points="46.05 19.95 46.05 26.59 40.3 29.91 40.3 23.27 46.05 19.95"/>
          <polygon class="cls-2" points="40.3 23.27 40.3 29.91 34.54 26.59 34.54 53.18 28.78 49.85 28.78 23.26 23.03 19.94 23.03 13.3 28.78 16.62 34.54 19.94 40.3 23.27"/>
          <polygon class="cls-5" points="40.3 29.91 40.3 49.86 34.54 53.18 34.54 26.59 40.3 29.91"/>
        </g>
        <g>
          <line class="cls-1" x1="80.59" y1="53.18" x2="74.84" y2="56.5"/>
          <path class="cls-2" d="M80.59,46.53h0s-5.75-3.33-5.75-3.33h0l-5.76-3.32v33.23l5.76,3.32v-13.29h0l5.75,3.32,5.76-3.32v-13.29l-5.76-3.32Zm0,13.29l-5.75-3.32h0v-6.65l5.76,3.32v6.65Z"/>
          <polygon class="cls-5" points="92.1 46.53 92.1 59.82 86.34 63.14 86.34 49.85 86.35 49.85 92.1 46.53"/>
          <polygon class="cls-5" points="80.59 66.47 80.59 73.12 74.83 76.44 74.83 63.14 74.84 63.14 80.59 66.47"/>
          <polygon class="cls-4" points="92.1 46.53 92.1 46.53 86.35 49.85 86.34 49.85 80.59 46.53 80.59 46.53 74.84 43.2 74.83 43.2 69.08 39.88 74.83 36.56 80.59 39.88 80.59 39.88 86.34 43.2 92.1 46.53"/>
          <polygon class="cls-5" points="80.58 53.17 80.58 53.18 74.84 56.49 74.84 49.86 80.58 53.17"/>
          <polygon class="cls-4" points="74.84 56.5 74.84 56.5 80.58 59.82 80.58 53.19 74.84 56.5"/>
        </g>
      </g>
      <g>
        <g>
          <polygon class="cls-4" points="207.73 113.5 201.99 116.82 196.25 113.5 201.99 110.19 207.73 113.5"/>
          <polygon class="cls-4" points="219.2 120.13 213.47 123.44 207.73 120.13 213.47 116.82 219.2 120.13"/>
          <polygon class="cls-5" points="207.73 113.5 207.73 140.01 207.72 140.01 201.99 143.32 201.99 116.82 207.73 113.5"/>
          <polygon class="cls-2" points="213.47 123.44 213.47 156.58 207.73 153.26 207.72 153.26 201.99 149.95 201.99 149.95 196.25 146.64 196.25 113.5 201.99 116.82 201.99 143.32 207.73 146.64 207.73 120.13 213.47 123.44"/>
          <polygon class="cls-5" points="219.2 120.13 219.2 153.26 213.47 156.58 213.47 123.44 219.2 120.13"/>
          <polygon class="cls-4" points="201.99 143.32 201.99 143.32 207.73 146.63 207.73 140.01 201.99 143.32"/>
        </g>
        <g>
          <line class="cls-1" x1="230.68" y1="140.02" x2="224.95" y2="143.33"/>
          <polygon class="cls-2" points="236.42 156.58 236.42 169.83 230.68 166.52 230.68 153.27 230.69 153.27 236.42 156.58"/>
          <polygon class="cls-5" points="230.68 153.27 230.68 159.9 224.95 163.21 224.94 163.21 224.94 149.96 230.68 153.27"/>
          <polygon class="cls-5" points="242.16 133.39 242.16 146.64 236.42 149.96 236.42 149.96 236.42 136.7 242.16 133.39"/>
          <polygon class="cls-4" points="242.16 133.39 242.16 133.39 236.42 136.7 230.68 133.39 224.94 130.08 219.2 126.77 224.94 123.45 230.68 126.76 230.68 126.77 236.42 130.08 242.16 133.39"/>
          <polygon class="cls-4" points="242.16 153.26 242.16 153.27 236.42 156.58 236.42 156.58 230.69 153.27 236.42 149.96 236.42 149.96 242.16 153.26"/>
          <polygon class="cls-5" points="242.16 153.27 242.16 166.52 236.42 169.83 236.42 169.83 236.42 156.58 236.42 156.58 242.16 153.27"/>
          <path class="cls-2" d="M230.68,133.39l-5.74-3.31-5.74-3.31v33.13h0l5.73,3.31v-13.25l5.74,3.31h0l5.73-3.31v-13.25l-5.74-3.32Zm0,13.25l-5.73-3.31h0v-6.63l5.74,3.31v6.63Z"/>
          <polygon class="cls-5" points="230.68 140.01 230.68 140.02 224.94 143.33 224.94 136.7 230.68 140.01"/>
          <polygon class="cls-4" points="224.94 143.33 224.94 143.33 230.68 146.64 230.68 140.02 224.94 143.33"/>
        </g>
        <g>
          <polygon class="cls-5" points="161.82 87 161.82 93.63 156.08 96.94 156.08 90.31 161.82 87"/>
          <polygon class="cls-2" points="167.56 96.94 167.56 110.19 161.82 106.88 161.82 126.76 161.82 126.76 156.08 123.45 156.08 103.57 150.35 100.25 150.35 87 156.08 90.31 156.08 96.94 161.82 100.25 161.82 93.63 167.56 96.94"/>
          <polygon class="cls-4" points="173.3 93.63 167.56 96.94 161.82 93.63 167.56 90.32 173.3 93.63"/>
          <polygon class="cls-4" points="161.82 87 156.08 90.31 150.35 87 156.08 83.69 161.82 87"/>
          <polygon class="cls-5" points="173.3 93.63 173.3 106.88 167.56 110.19 167.56 96.94 173.3 93.63"/>
          <polygon class="cls-5" points="167.56 110.19 167.56 123.44 161.82 126.75 161.82 106.88 167.56 110.19"/>
          <polygon class="cls-4" points="156.08 96.94 156.08 96.94 161.82 100.25 161.82 93.63 156.08 96.94"/>
        </g>
        <g>
          <polygon class="cls-4" points="190.51 103.57 184.78 106.88 184.78 106.88 179.04 103.57 179.04 103.57 184.78 100.26 190.51 103.57"/>
          <polygon class="cls-2" points="184.78 106.88 184.78 113.51 179.04 110.2 179.04 130.07 173.3 126.76 173.3 106.88 179.04 103.57 179.04 103.57 184.78 106.88"/>
          <polygon class="cls-2" points="190.51 116.82 190.51 136.7 184.78 140.01 179.04 136.7 179.04 130.07 184.78 133.39 184.78 113.51 190.51 116.82"/>
          <polygon class="cls-5" points="190.51 103.57 190.51 110.2 184.78 113.51 184.78 106.88 190.51 103.57"/>
          <polygon class="cls-4" points="196.25 113.51 190.51 116.82 184.78 113.51 190.51 110.2 196.25 113.51"/>
          <polygon class="cls-5" points="196.25 113.51 196.25 133.39 190.51 136.7 190.51 116.82 196.25 113.51"/>
          <polygon class="cls-5" points="184.78 113.51 184.78 126.76 179.04 130.07 179.04 110.2 184.78 113.51"/>
          <polygon class="cls-4" points="179.04 130.07 179.04 130.08 184.78 133.39 184.78 126.76 179.04 130.07"/>
        </g>
      </g>
      <g>
        <g>
          <polygon class="cls-4" points="353.83 197.71 348.07 201.03 342.31 197.71 336.56 194.39 330.8 191.06 336.56 187.74 342.31 191.06 348.07 194.39 353.83 197.71"/>
          <polygon class="cls-2" points="336.56 201.03 336.56 207.68 342.31 211 348.07 214.33 348.07 220.97 342.31 217.65 336.56 214.33 336.56 220.97 342.31 224.29 342.31 224.3 348.07 227.62 348.07 234.27 348.06 234.27 342.31 230.95 342.31 230.94 336.56 227.62 336.55 227.62 330.8 224.3 330.8 191.06 336.56 194.39 342.31 197.71 348.07 201.03 348.07 207.68 342.31 204.36 336.56 201.03"/>
          <polygon class="cls-5" points="353.83 197.71 353.83 204.36 348.07 207.68 348.07 201.03 353.83 197.71"/>
          <polygon class="cls-5" points="353.83 211 353.83 217.65 348.07 220.97 348.07 214.33 353.83 211"/>
          <polygon class="cls-5" points="353.83 224.3 353.83 230.94 348.07 234.26 348.07 227.62 353.83 224.3"/>
          <polygon class="cls-4" points="353.83 224.3 348.07 227.62 342.31 224.3 342.31 224.29 336.56 220.97 342.31 217.65 348.07 220.97 353.83 224.3"/>
          <polygon class="cls-4" points="353.83 211 348.07 214.33 342.31 211 336.56 207.68 342.31 204.36 348.07 207.68 353.83 211"/>
          <polygon class="cls-5" points="342.3 204.35 342.3 204.36 336.57 207.67 336.57 201.04 342.3 204.35"/>
          <polygon class="cls-5" points="342.3 217.65 342.3 217.65 336.57 220.96 336.57 214.33 342.3 217.65"/>
        </g>
        <g>
          <polygon class="cls-5" points="330.8 184.43 330.8 217.55 325.06 220.87 325.06 220.87 325.06 187.74 325.06 187.74 330.8 184.43 330.8 184.43"/>
          <polygon class="cls-5" points="307.84 184.42 307.84 204.3 302.11 207.61 302.11 181.11 302.11 181.11 307.84 184.42"/>
          <polygon class="cls-4" points="330.8 184.43 325.06 187.74 325.06 187.74 325.06 187.73 319.33 184.42 319.32 184.42 313.59 181.11 313.58 181.11 307.85 177.8 307.84 177.8 307.84 177.79 302.11 174.48 296.37 171.17 302.11 167.86 307.84 171.17 313.58 174.49 319.32 177.8 325.06 181.11 325.06 181.11 330.8 184.43"/>
          <polygon class="cls-2" points="325.06 187.73 325.06 220.86 319.33 217.55 319.32 217.55 319.32 191.05 319.33 191.05 319.32 191.04 313.59 187.74 313.58 187.74 313.58 214.24 307.84 210.93 307.84 184.42 302.11 181.11 302.11 181.11 302.11 207.61 296.37 204.3 296.37 204.3 296.37 171.17 296.37 171.17 302.11 174.48 307.84 177.79 307.84 177.8 307.85 177.8 313.58 181.11 313.59 181.11 319.32 184.42 319.32 184.43 319.33 184.42 325.06 187.73"/>
          <polygon class="cls-5" points="319.32 191.04 319.32 210.93 313.58 214.24 313.58 194.36 313.59 194.36 313.58 194.36 313.58 187.74 313.59 187.74 319.32 191.04"/>
        </g>
        <g>
          <line class="cls-1" x1="261.94" y1="171.17" x2="256.2" y2="174.48"/>
          <polygon class="cls-2" points="267.68 161.23 261.94 164.54 261.94 157.92 256.2 154.6 256.2 174.48 261.94 177.79 261.94 171.17 261.94 171.17 256.2 167.86 261.94 164.54 267.68 167.86 267.68 181.11 261.94 184.42 261.94 184.42 261.94 184.42 256.2 181.11 256.2 181.11 250.47 177.79 250.47 151.29 256.2 147.98 261.94 151.29 267.68 154.6 267.68 161.23"/>
          <polygon class="cls-5" points="273.42 151.29 273.42 157.92 267.68 161.23 267.68 154.6 273.42 151.29"/>
          <polygon class="cls-4" points="273.42 151.29 267.68 154.6 261.94 151.29 256.2 147.98 261.94 144.66 267.68 147.98 267.68 147.98 273.42 151.29"/>
          <polygon class="cls-5" points="273.42 164.54 273.42 177.79 267.68 181.11 267.68 167.86 273.42 164.54"/>
          <polygon class="cls-4" points="273.42 164.54 267.68 167.86 261.94 164.54 267.68 161.23 273.42 164.54"/>
          <polygon class="cls-5" points="261.94 171.17 261.94 171.17 256.2 174.49 256.2 167.86 261.94 171.17"/>
          <polygon class="cls-4" points="256.2 174.48 256.2 174.48 261.94 177.79 261.94 171.16 256.2 174.48"/>
          <polygon class="cls-5" points="261.94 157.92 261.94 157.91 256.2 154.6 256.2 161.23 256.2 161.23 256.2 161.23 256.2 161.24 256.2 167.86 261.94 164.55 261.94 164.54 261.94 164.54 261.94 157.92 261.94 157.92"/>
        </g>
        <g>
          <line class="cls-1" x1="284.89" y1="171.17" x2="279.16" y2="174.48"/>
          <path class="cls-2" d="M284.89,164.54l-5.74-3.31-5.74-3.32v33.14l5.74,3.31v-13.25l5.74,3.31v13.25l5.74,3.31v-33.13l-5.74-3.31Zm0,13.25l-5.74-3.31v-6.63l5.74,3.32v6.62Z"/>
          <polygon class="cls-4" points="296.37 164.54 290.63 167.86 284.89 164.54 279.16 161.23 273.42 157.92 279.16 154.6 279.16 154.61 284.89 157.92 290.63 161.23 296.37 164.54"/>
          <polygon class="cls-5" points="296.37 164.54 296.37 197.67 290.63 200.99 290.63 167.86 296.37 164.54"/>
          <polygon class="cls-5" points="284.89 184.42 284.89 191.05 279.16 194.36 279.16 181.11 284.89 184.42"/>
          <polygon class="cls-5" points="284.89 171.17 284.89 171.17 279.16 174.49 279.16 167.86 284.89 171.17"/>
          <polygon class="cls-4" points="279.16 174.48 279.16 174.48 284.89 177.79 284.89 171.16 279.16 174.48"/>
        </g>
      </g>
    </g>
  </g>
</svg>