<?xml version="1.0" encoding="UTF-8"?>
<svg id="Layer_2" data-name="Layer 2" xmlns="http://www.w3.org/2000/svg" xmlns:xlink="http://www.w3.org/1999/xlink" viewBox="0 0 216.92 250.47">
  <defs>
    <style>
      .cls-1 {
        fill: url(#linear-gradient-2);
      }

      .cls-2 {
        fill: #cbf1f5;
      }

      .cls-3 {
        opacity: .45;
      }

      .cls-4 {
        fill: #a6e3e9;
      }

      .cls-5 {
        fill: #71c9ce;
      }

      .cls-6 {
        fill: url(#linear-gradient-3);
      }

      .cls-7 {
        fill: url(#linear-gradient);
      }
    </style>
    <linearGradient id="linear-gradient" x1="108.46" y1="125.19" x2="108.46" y2="0" gradientUnits="userSpaceOnUse">
      <stop offset="0" stop-color="#fff"/>
      <stop offset=".02" stop-color="#fff" stop-opacity=".96"/>
      <stop offset=".12" stop-color="#fff" stop-opacity=".81"/>
      <stop offset=".22" stop-color="#fff" stop-opacity=".68"/>
      <stop offset=".32" stop-color="#fff" stop-opacity=".58"/>
      <stop offset=".44" stop-color="#fff" stop-opacity=".5"/>
      <stop offset=".57" stop-color="#fff" stop-opacity=".44"/>
      <stop offset=".73" stop-color="#fff" stop-opacity=".41"/>
      <stop offset="1" stop-color="#fff" stop-opacity=".4"/>
    </linearGradient>
    <linearGradient id="linear-gradient-2" x1="195.25" y1="203.04" x2="130.12" y2="110.02" xlink:href="#linear-gradient"/>
    <linearGradient id="linear-gradient-3" x1="21.66" y1="203.04" x2="86.8" y2="110.02" xlink:href="#linear-gradient"/>
  </defs>
  <g id="Components">
    <g id="block6">
      <g>
        <polygon class="cls-4" points="199.76 72.51 108.4 125.23 17.03 72.51 108.4 19.78 199.76 72.51"/>
        <polygon class="cls-5" points="199.76 72.51 199.76 178.04 108.4 230.76 108.4 125.23 199.76 72.51"/>
        <polygon class="cls-2" points="108.4 125.23 108.4 230.76 17.03 178.04 17.03 72.51 108.4 125.23"/>
      </g>
      <g class="cls-3">
        <polygon class="cls-7" points="216.92 62.6 108.46 125.19 0 62.6 108.46 0 216.92 62.6"/>
        <polygon class="cls-1" points="216.92 62.6 216.92 187.87 108.46 250.47 108.46 125.19 216.92 62.6"/>
        <polygon class="cls-6" points="108.46 125.19 108.46 250.47 0 187.87 0 62.6 108.46 125.19"/>
      </g>
    </g>
  </g>
</svg>