<?xml version="1.0" encoding="UTF-8"?>
<svg id="Layer_2" data-name="Layer 2" xmlns="http://www.w3.org/2000/svg" xmlns:xlink="http://www.w3.org/1999/xlink" viewBox="0 0 220.18 338.94">
  <defs>
    <style>
      .cls-1 {
        fill: #cbf1f5;
      }

      .cls-2 {
        filter: url(#outer-glow-1);
      }

      .cls-3 {
        fill: #a6e3e9;
      }

      .cls-4 {
        fill: #71c9ce;
      }
    </style>
    <filter id="outer-glow-1" filterUnits="userSpaceOnUse">
      <feOffset dx="0" dy="0"/>
      <feGaussianBlur result="blur" stdDeviation="1"/>
      <feFlood flood-color="#5ed1d3" flood-opacity=".75"/>
      <feComposite in2="blur" operator="in"/>
      <feComposite in="SourceGraphic"/>
    </filter>
  </defs>
  <g id="Components">
    <g id="UCPC" class="cls-2">
      <g>
        <g>
          <polygon class="cls-4" points="110.12 10.61 110.12 95.37 91.76 105.98 73.41 116.57 55.06 127.16 55.06 105.98 73.41 95.37 91.76 84.78 91.76 21.2 110.12 10.61"/>
          <polygon class="cls-3" points="110.12 10.59 110.12 10.61 91.76 21.2 73.41 10.61 91.76 .01 91.76 0 110.12 10.59"/>
          <polygon class="cls-3" points="36.71 10.61 18.35 21.2 0 10.61 0 10.59 18.34 0 18.35 0 18.35 .01 36.71 10.61"/>
          <polygon class="cls-1" points="91.76 21.2 91.76 84.78 73.41 74.19 73.41 10.61 91.76 21.2"/>
          <polygon class="cls-4" points="36.71 10.61 36.71 74.19 18.35 84.78 18.35 21.2 36.71 10.61"/>
          <polygon class="cls-1" points="55.06 105.98 55.06 127.16 36.71 116.57 18.35 105.98 0 95.37 0 10.61 18.35 21.2 18.35 84.78 36.71 95.37 36.71 95.39 55.06 105.98"/>
          <polygon class="cls-3" points="91.76 84.78 73.41 95.37 55.06 105.98 36.71 95.39 36.71 95.37 18.35 84.78 36.71 74.19 55.06 84.78 73.41 74.19 91.76 84.78"/>
        </g>
        <g>
          <polygon class="cls-4" points="77.28 84.78 77.28 88.97 80.91 86.87 80.91 86.87 84.54 84.78 84.54 84.78 84.54 84.77 88.17 82.68 88.17 82.68 88.17 70.11 88.17 70.11 84.54 72.2 84.54 76.4 84.54 76.4 80.91 78.49 80.91 82.68 77.28 84.78 77.28 84.78"/>
          <polygon class="cls-3" points="73.65 65.92 77.28 68.01 80.91 70.11 84.54 72.2 84.54 72.2 88.17 70.11 84.54 68.02 84.54 68.01 84.54 68.01 80.91 65.92 77.28 63.82 73.65 65.92"/>
          <polygon class="cls-1" points="73.65 65.92 73.65 70.11 77.28 72.2 80.91 74.3 84.54 76.4 84.54 76.4 84.54 72.2 84.54 72.2 80.91 70.11 77.28 68.01 73.65 65.92"/>
          <polygon class="cls-3" points="70.02 72.2 73.65 74.3 77.28 76.4 80.91 78.49 84.54 76.4 80.91 74.3 77.28 72.2 73.65 70.11 70.02 72.2"/>
          <polygon class="cls-1" points="70.02 72.2 70.02 76.4 73.65 78.49 77.28 80.59 80.91 82.68 80.91 78.49 77.28 76.4 73.65 74.3 70.02 72.2"/>
          <polygon class="cls-3" points="66.39 78.49 70.02 80.59 73.65 82.68 73.66 82.68 77.28 84.77 77.28 84.78 77.28 84.78 80.91 82.68 80.91 82.68 77.28 80.59 73.65 78.49 70.02 76.4 66.39 78.49"/>
          <polygon class="cls-1" points="66.39 78.49 66.39 82.68 70.02 84.78 73.65 86.87 77.28 88.97 77.28 84.77 73.66 82.68 73.65 82.68 70.02 80.59 66.39 78.49"/>
        </g>
        <g>
          <polygon class="cls-3" points="22.65 25.17 22.65 28.46 25.5 26.82 25.5 26.82 25.5 26.82 28.35 25.17 28.35 25.17 31.2 23.53 34.05 21.88 31.2 20.24 31.2 20.23 28.35 21.88 28.35 21.88 25.5 23.53 25.5 23.53 22.65 25.17"/>
          <polygon class="cls-4" points="14.1 13.65 16.95 15.3 16.95 15.3 19.8 13.65 19.8 13.65 22.65 12.01 22.65 12.01 22.65 12 25.5 10.36 25.5 10.36 25.5 7.07 22.65 8.71 22.65 8.71 19.8 10.36 19.8 10.36 16.95 12 16.95 12.01 16.95 12.01 14.1 13.65"/>
          <polygon class="cls-3" points="11.25 12.01 14.1 13.65 16.95 12.01 16.95 12.01 16.95 12 19.8 10.36 19.8 10.36 22.65 8.71 22.65 8.71 25.5 7.07 25.5 7.06 22.65 5.42 19.8 7.07 16.95 8.71 14.1 10.36 11.25 12.01"/>
          <polygon class="cls-3" points="16.95 15.3 16.95 15.3 19.8 16.94 19.8 16.94 19.8 16.94 22.65 15.3 22.65 15.3 25.5 13.65 25.5 13.65 28.35 12.01 25.5 10.36 25.5 10.36 25.5 10.36 22.65 12 22.65 12.01 22.65 12.01 19.8 13.65 19.8 13.65 16.95 15.3"/>
          <polygon class="cls-1" points="25.5 7.07 25.5 10.36 28.35 12.01 28.35 12.01 28.35 15.3 31.2 16.94 31.2 16.94 31.2 20.24 34.05 21.88 34.05 21.88 34.05 12 31.2 10.36 28.35 8.71 25.5 7.07"/>
          <polygon class="cls-4" points="19.8 16.94 19.8 16.94 22.65 18.59 22.65 18.59 25.5 16.94 25.5 16.94 25.5 16.94 28.35 15.3 28.35 12.01 28.35 12.01 25.5 13.65 25.5 13.65 22.65 15.3 22.65 15.3 19.8 16.94"/>
          <polygon class="cls-3" points="22.65 18.59 22.65 21.88 25.5 20.23 25.5 20.23 28.35 18.59 28.35 18.59 31.2 16.94 28.35 15.3 28.35 15.3 25.5 16.94 25.5 16.94 25.5 16.94 22.65 18.59"/>
          <polygon class="cls-4" points="22.65 21.88 22.65 25.17 25.5 23.53 25.5 23.53 28.35 21.88 28.35 21.88 31.2 20.23 31.2 16.94 31.2 16.94 28.35 18.59 28.35 18.59 25.5 20.23 25.5 20.23 22.65 21.88"/>
        </g>
      </g>
      <g>
        <g>
          <polygon class="cls-4" points="165.12 63.45 165.12 84.65 146.77 95.24 146.77 137.63 128.42 148.22 128.42 84.64 146.77 74.04 165.12 63.45"/>
          <polygon class="cls-3" points="220.18 74.04 201.83 84.65 183.48 74.04 165.12 63.45 146.77 74.04 128.42 84.64 110.06 74.04 128.42 63.45 146.77 52.86 146.77 52.84 165.12 42.25 183.48 52.86 201.83 63.45 220.18 74.04"/>
          <polygon class="cls-4" points="220.18 74.04 220.18 95.24 201.84 105.83 201.83 105.83 201.83 84.65 220.18 74.04"/>
          <polygon class="cls-1" points="201.83 84.65 201.83 105.83 183.48 95.24 183.48 95.23 165.12 84.64 165.12 63.45 183.48 74.04 201.83 84.65"/>
          <polygon class="cls-3" points="220.18 137.63 201.83 148.22 201.83 148.23 183.48 158.82 165.12 169.42 146.77 158.82 128.42 148.23 128.42 148.22 146.77 137.63 165.12 148.22 183.48 137.63 201.83 127.03 201.84 127.03 220.18 137.63"/>
          <polygon class="cls-1" points="165.12 169.42 165.12 190.62 146.77 180.01 128.42 169.42 110.06 158.82 110.06 74.04 128.42 84.64 128.42 148.23 146.77 158.82 165.12 169.42"/>
          <polygon class="cls-4" points="220.18 137.63 220.18 158.82 201.83 169.42 183.48 180.01 165.12 190.62 165.12 169.42 183.48 158.82 201.83 148.23 201.83 148.22 220.18 137.63"/>
        </g>
        <polygon class="cls-4" points="157.06 89.28 157.06 93.24 153.63 95.22 153.63 99.19 150.2 101.17 150.2 105.13 146.77 107.11 146.77 95.22 150.2 93.24 153.63 91.26 157.06 89.28"/>
        <g>
          <polygon class="cls-1" points="119.26 142.9 119.26 148.25 114.67 145.58 114.67 145.57 110.09 142.9 110.09 137.56 114.67 140.23 119.26 142.9"/>
          <polygon class="cls-3" points="119.26 148.25 114.67 150.92 110.09 148.25 105.51 145.57 110.09 142.9 114.67 145.57 114.67 145.58 119.26 148.25"/>
          <polygon class="cls-1" points="114.67 150.92 114.67 156.26 110.09 153.59 105.51 150.92 105.51 145.57 110.09 148.25 114.67 150.92"/>
          <polygon class="cls-3" points="114.67 156.26 110.09 158.93 105.51 156.26 100.93 153.59 105.51 150.92 110.09 153.59 114.67 156.26"/>
          <polygon class="cls-3" points="128.42 137.56 123.84 140.23 119.26 142.9 114.67 140.23 110.09 137.56 110.09 137.56 114.67 134.89 119.26 132.22 123.84 134.89 123.84 134.89 128.42 137.56"/>
          <polygon class="cls-1" points="110.09 158.93 110.09 169.62 105.51 166.95 105.51 166.95 100.93 164.28 100.93 153.59 105.51 156.26 110.09 158.93"/>
          <polygon class="cls-4" points="128.42 137.56 128.42 142.9 123.84 145.58 123.84 150.92 119.26 153.59 119.26 158.93 114.67 161.6 114.67 166.95 110.09 169.62 110.09 158.93 114.67 156.26 114.67 150.92 119.26 148.25 119.26 142.9 123.84 140.23 128.42 137.56"/>
        </g>
      </g>
      <g>
        <g>
          <polygon class="cls-4" points="36.71 243.74 36.71 264.92 18.35 275.51 18.35 233.14 36.71 243.74"/>
          <polygon class="cls-3" points="110.12 158.96 110.12 158.97 91.76 169.56 73.41 158.96 55.06 148.36 55.06 127.16 73.41 137.77 91.76 148.36 110.12 158.96"/>
          <polygon class="cls-3" points="91.76 211.95 73.41 222.54 55.06 233.13 36.71 222.54 18.35 211.95 36.71 201.35 55.06 211.95 73.41 201.35 91.76 211.95"/>
          <polygon class="cls-3" points="55.06 127.16 55.06 148.36 36.71 158.96 18.35 169.56 0 158.97 0 158.96 18.35 148.36 36.71 137.77 55.06 127.16"/>
          <polygon class="cls-1" points="91.76 169.56 91.76 211.95 73.41 201.35 73.41 180.15 55.06 169.56 55.06 148.36 73.41 158.96 91.76 169.56"/>
          <polygon class="cls-4" points="55.06 148.36 55.06 169.56 36.71 180.15 36.71 201.35 18.35 211.95 18.35 169.56 36.71 158.96 55.06 148.36"/>
          <polygon class="cls-4" points="110.12 158.97 110.12 222.54 91.76 233.13 73.41 243.74 55.06 254.33 55.06 233.13 73.41 222.54 91.76 211.95 91.76 169.56 110.12 158.97"/>
          <polygon class="cls-1" points="55.06 233.13 55.06 254.33 36.71 243.74 18.35 233.14 18.35 275.51 0 264.92 0 158.97 18.35 169.56 18.35 211.95 36.71 222.54 55.06 233.13"/>
        </g>
        <g>
          <polygon class="cls-1" points="33.01 184.25 33.01 203.46 30.93 202.26 30.93 199.85 28.85 198.65 28.85 196.25 26.77 195.05 26.77 192.65 24.69 191.45 24.69 189.05 26.77 187.85 28.85 186.65 28.85 186.65 30.93 185.45 33.01 184.25"/>
          <polygon class="cls-3" points="26.77 192.65 24.69 193.85 24.69 193.85 22.61 195.05 22.61 195.05 22.61 192.65 22.61 192.65 24.69 191.45 24.69 191.45 26.77 192.65"/>
          <polygon class="cls-4" points="24.69 189.05 24.69 191.45 22.61 192.65 22.61 192.65 22.61 190.25 24.69 189.05"/>
          <polygon class="cls-4" points="26.77 192.65 26.77 195.05 24.69 196.25 24.69 196.25 24.69 196.25 22.61 197.45 22.61 197.45 22.61 195.05 22.61 195.05 24.69 193.85 24.69 193.85 26.77 192.65"/>
          <polygon class="cls-3" points="28.85 196.25 26.77 197.45 24.69 198.65 24.69 198.65 22.61 199.85 22.61 199.85 22.61 197.45 22.61 197.45 24.69 196.25 24.69 196.25 24.69 196.25 26.77 195.05 28.85 196.25"/>
          <polygon class="cls-4" points="30.93 199.85 30.93 202.26 28.85 203.46 26.77 204.66 26.77 204.66 24.69 205.86 24.69 205.86 22.61 207.06 22.61 207.06 22.61 204.66 22.61 204.66 24.69 203.46 24.69 203.46 24.69 203.46 26.77 202.26 28.85 201.06 30.93 199.85"/>
          <polygon class="cls-3" points="30.93 199.85 28.85 201.06 26.77 202.26 24.69 203.46 24.69 203.46 24.69 203.46 22.61 204.66 22.61 204.66 22.61 202.26 22.61 202.26 24.69 201.06 24.69 201.06 26.77 199.85 28.85 198.65 30.93 199.85"/>
          <polygon class="cls-4" points="28.85 196.25 28.85 198.65 26.77 199.85 24.69 201.06 24.69 201.06 22.61 202.26 22.61 202.26 22.61 199.85 22.61 199.85 24.69 198.65 24.69 198.65 26.77 197.45 28.85 196.25"/>
          <polygon class="cls-3" points="33.01 203.46 30.93 204.66 30.93 204.66 28.85 205.86 28.85 205.86 28.85 205.86 26.77 207.06 26.77 207.06 26.77 207.06 24.69 208.26 22.61 209.46 22.61 207.06 22.61 207.06 24.69 205.86 24.69 205.86 26.77 204.66 26.77 204.66 28.85 203.46 30.93 202.26 33.01 203.46"/>
        </g>
        <g>
          <polygon class="cls-3" points="84.11 171.95 84.11 175.34 81.17 173.65 81.16 173.65 81.16 173.64 78.23 171.95 78.22 171.95 75.28 170.25 72.34 168.55 75.28 166.85 75.28 166.85 78.22 168.55 78.22 168.55 81.16 170.25 81.17 170.25 84.11 171.95"/>
          <polygon class="cls-1" points="92.93 160.06 89.99 161.76 89.99 161.76 87.05 160.06 87.05 160.06 84.11 158.36 84.11 158.36 84.11 158.36 81.17 156.66 81.16 156.66 81.16 153.27 84.11 154.97 84.11 154.97 87.05 156.66 87.05 156.66 89.99 158.36 89.99 158.36 89.99 158.36 92.93 160.06"/>
          <polygon class="cls-3" points="95.87 158.36 92.93 160.06 89.99 158.36 89.99 158.36 89.99 158.36 87.05 156.66 87.05 156.66 84.11 154.97 84.11 154.97 81.16 153.27 81.16 153.27 84.11 151.57 87.05 153.27 89.99 154.97 92.93 156.67 95.87 158.36"/>
          <polygon class="cls-3" points="89.99 161.76 89.99 161.76 87.05 163.46 87.05 163.46 87.05 163.45 84.11 161.76 84.11 161.76 81.17 160.06 81.16 160.06 78.23 158.36 81.16 156.67 81.16 156.66 81.17 156.66 84.11 158.36 84.11 158.36 84.11 158.36 87.05 160.06 87.05 160.06 89.99 161.76"/>
          <polygon class="cls-4" points="81.16 153.27 81.16 156.67 78.23 158.36 78.22 158.36 78.22 161.76 75.29 163.46 75.28 163.46 75.28 166.85 72.34 168.55 72.34 168.55 72.34 158.36 75.28 156.66 78.22 154.97 81.16 153.27"/>
          <polygon class="cls-1" points="87.05 163.45 87.05 163.46 84.11 165.15 84.11 165.15 81.17 163.46 81.16 163.46 81.16 163.45 78.22 161.76 78.22 158.36 78.23 158.36 81.16 160.06 81.17 160.06 84.11 161.76 84.11 161.76 87.05 163.45"/>
          <polygon class="cls-3" points="84.11 165.15 84.11 168.55 81.17 166.85 81.16 166.85 78.23 165.15 78.22 165.15 75.29 163.46 78.22 161.76 78.22 161.76 81.16 163.45 81.16 163.46 81.17 163.46 84.11 165.15"/>
          <polygon class="cls-1" points="84.11 168.55 84.11 171.95 81.17 170.25 81.16 170.25 78.22 168.55 78.22 168.55 75.28 166.85 75.28 163.46 75.29 163.46 78.22 165.15 78.23 165.15 81.16 166.85 81.17 166.85 84.11 168.55"/>
        </g>
        <g>
          <polygon class="cls-1" points="35.01 242.54 35.01 248.95 29.46 245.74 29.46 245.74 29.46 252.15 23.91 248.95 23.9 248.95 23.9 255.36 18.36 252.16 18.35 252.16 18.35 232.92 18.36 232.92 23.9 236.13 23.91 236.13 29.46 239.33 29.46 239.33 29.46 239.33 35.01 242.54"/>
          <polygon class="cls-4" points="35.48 249.49 35.48 249.49 29.92 252.7 29.92 252.7 29.92 246.28 29.92 246.28 35.48 249.49"/>
          <polygon class="cls-4" points="29.92 252.69 29.92 252.7 24.37 255.9 24.37 255.9 24.37 249.49 24.37 249.49 29.92 252.69"/>
        </g>
      </g>
      <g>
        <g>
          <polygon class="cls-4" points="165.12 211.78 165.12 232.98 146.77 243.57 146.77 285.95 128.42 296.54 128.42 232.96 146.77 222.37 165.12 211.78"/>
          <polygon class="cls-3" points="220.18 222.37 201.83 232.98 183.48 222.37 165.12 211.78 146.77 222.37 128.42 232.96 110.06 222.37 128.42 211.78 146.77 201.18 146.77 201.17 165.12 190.58 183.48 201.18 201.83 211.78 220.18 222.37"/>
          <polygon class="cls-4" points="220.18 222.37 220.18 243.57 201.84 254.16 201.83 254.16 201.83 232.98 220.18 222.37"/>
          <polygon class="cls-1" points="201.83 232.98 201.83 254.16 183.48 243.57 183.48 243.55 165.12 232.96 165.12 211.78 183.48 222.37 201.83 232.98"/>
          <polygon class="cls-3" points="220.18 285.95 201.83 296.54 201.83 296.56 183.48 307.15 165.12 317.74 146.77 307.15 128.42 296.56 128.42 296.54 146.77 285.95 165.12 296.54 183.48 285.95 201.83 275.36 201.84 275.36 220.18 285.95"/>
          <polygon class="cls-1" points="165.12 317.74 165.12 338.94 146.77 328.33 128.42 317.74 110.06 307.15 110.06 222.37 128.42 232.96 128.42 296.56 146.77 307.15 165.12 317.74"/>
          <polygon class="cls-4" points="220.18 285.95 220.18 307.15 201.83 317.74 183.48 328.33 165.12 338.94 165.12 317.74 183.48 307.15 201.83 296.56 201.83 296.54 220.18 285.95"/>
        </g>
        <g>
          <polygon class="cls-1" points="146.85 300.03 146.85 307.11 140.71 303.57 140.7 303.57 134.57 300.03 134.56 300.03 134.56 300.02 128.42 296.48 128.42 296.48 128.42 275.21 128.42 275.21 134.56 278.75 134.56 285.84 134.57 285.84 140.71 289.39 140.71 296.48 146.84 300.03 146.85 300.03"/>
          <polygon class="cls-3" points="152.99 268.11 146.85 271.66 140.71 275.21 134.57 278.75 134.56 278.75 128.42 275.21 134.56 271.66 134.56 271.66 134.57 271.66 140.71 268.11 146.85 264.57 152.99 268.11"/>
          <polygon class="cls-4" points="152.99 268.11 152.99 275.21 146.85 278.75 140.71 282.3 134.57 285.84 134.56 285.84 134.56 278.75 134.57 278.75 140.71 275.21 146.85 271.66 152.99 268.11"/>
          <polygon class="cls-3" points="159.13 278.75 152.99 282.3 146.85 285.84 140.71 289.39 134.57 285.84 140.71 282.3 146.85 278.75 152.99 275.21 159.13 278.75"/>
          <polygon class="cls-4" points="159.13 278.75 159.13 285.84 152.99 289.39 146.85 292.93 140.71 296.48 140.71 289.39 146.85 285.84 152.99 282.3 159.13 278.75"/>
          <polygon class="cls-3" points="165.27 289.39 159.13 292.93 152.99 296.48 152.98 296.48 146.85 300.02 146.85 300.03 146.84 300.03 140.71 296.48 140.71 296.48 146.85 292.93 152.99 289.39 159.13 285.84 165.27 289.39"/>
          <polygon class="cls-4" points="165.27 289.39 165.27 296.48 159.13 300.03 152.99 303.57 146.85 307.11 146.85 300.02 152.98 296.48 152.99 296.48 159.13 292.93 165.27 289.39"/>
        </g>
      </g>
    </g>
  </g>
</svg>