<svg id="Layer_1" data-name="Layer 1" xmlns="http://www.w3.org/2000/svg" viewBox="0 0 488.71 76.8"><defs><style>.cls-1,.cls-2{fill:none;stroke:#fff;stroke-miterlimit:10;}.cls-1{stroke-width:6.23px;}.cls-2{stroke-width:6.34px;}.cls-3{fill:#fff;}</style></defs><title>prize</title><polyline class="cls-1" points="27.39 73 3.12 73 3.12 3.8 27.39 3.8"/><polyline class="cls-2" points="460.82 73.63 485.54 73.63 485.54 3.17 460.82 3.17"/><path class="cls-3" d="M92.82,60.23a4.9,4.9,0,1,1,6.93,0A4.91,4.91,0,0,1,92.82,60.23Z"/><path class="cls-3" d="M108.59,56c-2.83-3.87-4.28-9-4.28-15.3s1.45-11.43,4.28-15.24a14,14,0,0,1,11.89-5.78,13.87,13.87,0,0,1,11.89,5.78c2.83,3.81,4.32,8.93,4.32,15.24s-1.45,11.43-4.28,15.3A15.21,15.21,0,0,1,111,58.4,15.88,15.88,0,0,1,108.63,56ZM120.48,27.4c-5.37,0-8.2,4.68-8.2,13.28s2.83,13.22,8.2,13.22,8.21-4.64,8.21-13.19S125.85,27.4,120.48,27.4Z"/><path class="cls-3" d="M145,56c-2.83-3.87-4.27-9-4.27-15.3s1.44-11.43,4.27-15.24a15.13,15.13,0,0,1,21.25-2.54h0a14.54,14.54,0,0,1,2.54,2.54c2.83,3.81,4.27,8.89,4.27,15.24s-1.44,11.43-4.27,15.3a15.22,15.22,0,0,1-21.39,2.4h0A15,15,0,0,1,145,56ZM156.85,27.4c-5.37,0-8.2,4.68-8.2,13.28s2.83,13.22,8.2,13.22,8.26-4.67,8.26-13.22S162.22,27.4,156.85,27.4Z"/><path class="cls-3" d="M181.33,56c-2.83-3.87-4.27-9-4.27-15.3s1.44-11.43,4.27-15.24a14,14,0,0,1,11.89-5.78,13.88,13.88,0,0,1,11.9,5.78c2.83,3.81,4.27,8.89,4.27,15.24S208,52.14,205.12,56a14,14,0,0,1-11.9,5.72A14.16,14.16,0,0,1,181.33,56ZM193.22,27.4c-5.36,0-8.19,4.68-8.19,13.28s2.83,13.22,8.19,13.22,8.26-4.67,8.26-13.22S198.59,27.4,193.22,27.4Z"/><path class="cls-3" d="M214,60.23a4.9,4.9,0,1,1,6.93,0A4.91,4.91,0,0,1,214,60.23Z"/><path class="cls-3" d="M229.69,56c-2.83-3.87-4.27-9-4.27-15.3s1.44-11.43,4.27-15.24a15.13,15.13,0,0,1,21.25-2.54,14.89,14.89,0,0,1,2.54,2.54c2.83,3.81,4.27,8.89,4.27,15.24s-1.44,11.43-4.27,15.3a15.23,15.23,0,0,1-21.41,2.38A14.88,14.88,0,0,1,229.69,56ZM241.61,27.4c-5.37,0-8.2,4.68-8.2,13.28s2.83,13.22,8.2,13.22,8.25-4.67,8.25-13.22S247,27.4,241.61,27.4Z"/><path class="cls-3" d="M266.08,56c-2.83-3.87-4.27-9-4.27-15.3s1.44-11.43,4.27-15.24a15.13,15.13,0,0,1,21.25-2.54,14.89,14.89,0,0,1,2.54,2.54c2.83,3.81,4.28,8.89,4.28,15.24S292.7,52.14,289.87,56a15.23,15.23,0,0,1-21.41,2.38A14.88,14.88,0,0,1,266.08,56ZM278,27.4c-5.37,0-8.2,4.68-8.2,13.28S272.61,53.9,278,53.9s8.26-4.67,8.26-13.22S283.35,27.4,278,27.4Z"/><path class="cls-3" d="M302.46,56c-2.83-3.87-4.28-9-4.28-15.3s1.45-11.43,4.28-15.24a14,14,0,0,1,11.89-5.78,13.87,13.87,0,0,1,11.89,5.78c2.83,3.81,4.28,8.89,4.28,15.24s-1.45,11.43-4.28,15.3a15.21,15.21,0,0,1-21.39,2.39A15.88,15.88,0,0,1,302.46,56ZM314.35,27.4c-5.37,0-8.2,4.68-8.2,13.28S309,53.9,314.35,53.9s8.26-4.67,8.26-13.22S319.69,27.4,314.35,27.4Z"/><path class="cls-3" d="M360.69,60.92,347.14,20.5h8.66l9.89,31.07L375.5,20.5h8.72L370.58,60.92Z"/><path class="cls-3" d="M411.46,20.5h8V60.92H413.4L396,36.21V60.92h-8V20.5h6.06l17.32,24.66Z"/><path class="cls-3" d="M445,20.5a18.39,18.39,0,0,1,13.86,5.83,19.85,19.85,0,0,1,5.6,14.38,19.85,19.85,0,0,1-5.6,14.38A18.39,18.39,0,0,1,445,60.92H429V44.58h-3.4V37.94H429V20.5Zm0,32.8a11.22,11.22,0,0,0,8.55-3.47,12.81,12.81,0,0,0,3.29-9.12,12.55,12.55,0,0,0-3.29-9.06A11.06,11.06,0,0,0,445,28.12h-8.08v9.82h8.2v6.64h-8.2V53.3Z"/><path class="cls-3" d="M60.61,56c-2.83-3.87-4.28-9-4.28-15.3s1.45-11.43,4.28-15.24A14,14,0,0,1,72.5,19.69a13.87,13.87,0,0,1,11.89,5.78c2.83,3.81,4.3,8.93,4.3,15.24S87.24,52.14,84.41,56a14,14,0,0,1-11.89,5.72A14.07,14.07,0,0,1,60.61,56ZM72.5,27.4c-5.37,0-8.2,4.68-8.2,13.28S67.13,53.9,72.5,53.9s8.19-4.64,8.19-13.19S77.87,27.4,72.5,27.4Z"/><path class="cls-3" d="M51.71,50.12c0,7-5.81,11.62-13.66,11.62-7.2,0-12.47-3.71-14.51-8.75l6-2.63c1.25,3,3.89,4.91,8,4.91,3.89,0,7.07-2.4,7.07-6.11,0-3.24-2.58-6.17-7.73-6.17H33.79V37.11h3.78c4.31,0,6-2.57,6-5.45,0-3.29-2.76-5.57-6.17-5.57a7.39,7.39,0,0,0-6.77,3.59l-5.58-3c2-4.08,6.53-7,12.53-7,7.19,0,13,3.95,13,10.9a10.33,10.33,0,0,1-5.51,9.29v.06A10.75,10.75,0,0,1,51.71,50.12Z"/></svg>