<svg id="Layer_1" data-name="Layer 1" xmlns="http://www.w3.org/2000/svg" viewBox="0 0 488.71 76.8"><defs><style>.cls-1,.cls-2{fill:none;stroke:#fff;stroke-miterlimit:10;}.cls-1{stroke-width:6.23px;}.cls-2{stroke-width:6.34px;}.cls-3{fill:#fff;}</style></defs><title>prize</title><polyline class="cls-1" points="27.39 73 3.12 73 3.12 3.8 27.39 3.8"/><polyline class="cls-2" points="460.82 73.63 485.54 73.63 485.54 3.17 460.82 3.17"/><path class="cls-3" d="M99.13,71.83a4.9,4.9,0,1,1,6.93,0A4.91,4.91,0,0,1,99.13,71.83Z" transform="translate(-6.31 -11.6)"/><path class="cls-3" d="M114.9,67.61c-2.83-3.87-4.28-9-4.28-15.3s1.45-11.43,4.28-15.24a14,14,0,0,1,11.89-5.78,13.87,13.87,0,0,1,11.89,5.78C141.51,40.88,143,46,143,52.31s-1.45,11.43-4.28,15.3a15.22,15.22,0,0,1-23.78,0ZM126.79,39c-5.37,0-8.2,4.68-8.2,13.28s2.83,13.22,8.2,13.22S135,60.86,135,52.31,132.16,39,126.79,39Z" transform="translate(-6.31 -11.6)"/><path class="cls-3" d="M151.27,67.61c-2.83-3.87-4.27-9-4.27-15.3s1.44-11.43,4.27-15.24a15.13,15.13,0,0,1,21.25-2.54,14.89,14.89,0,0,1,2.54,2.54c2.83,3.81,4.27,8.89,4.27,15.24s-1.44,11.43-4.27,15.3A15.22,15.22,0,0,1,153.66,70,14.94,14.94,0,0,1,151.27,67.61ZM163.16,39c-5.37,0-8.2,4.68-8.2,13.28s2.83,13.22,8.2,13.22,8.26-4.67,8.26-13.22S168.53,39,163.16,39Z" transform="translate(-6.31 -11.6)"/><path class="cls-3" d="M187.64,67.61c-2.83-3.87-4.27-9-4.27-15.3s1.44-11.43,4.27-15.24a14,14,0,0,1,11.89-5.78,13.88,13.88,0,0,1,11.9,5.78c2.83,3.81,4.27,8.89,4.27,15.24s-1.44,11.43-4.27,15.3a14,14,0,0,1-11.9,5.72A14.16,14.16,0,0,1,187.64,67.61ZM199.53,39c-5.36,0-8.19,4.68-8.19,13.28s2.83,13.22,8.19,13.22,8.26-4.67,8.26-13.22S204.9,39,199.53,39Z" transform="translate(-6.31 -11.6)"/><path class="cls-3" d="M220.26,71.83a4.9,4.9,0,1,1,6.93,0A4.91,4.91,0,0,1,220.26,71.83Z" transform="translate(-6.31 -11.6)"/><path class="cls-3" d="M236,67.61c-2.83-3.87-4.27-9-4.27-15.3s1.44-11.43,4.27-15.24a15.13,15.13,0,0,1,23.79,0c2.83,3.81,4.27,8.89,4.27,15.24s-1.44,11.43-4.27,15.3a15.23,15.23,0,0,1-23.79,0ZM247.92,39c-5.37,0-8.2,4.68-8.2,13.28s2.83,13.22,8.2,13.22,8.25-4.67,8.25-13.22S253.29,39,247.92,39Z" transform="translate(-6.31 -11.6)"/><path class="cls-3" d="M272.39,67.61c-2.83-3.87-4.27-9-4.27-15.3s1.44-11.43,4.27-15.24a15.13,15.13,0,0,1,23.79,0c2.83,3.81,4.28,8.89,4.28,15.24s-1.45,11.43-4.28,15.3a15.23,15.23,0,0,1-23.79,0ZM284.29,39c-5.37,0-8.2,4.68-8.2,13.28s2.83,13.22,8.2,13.22,8.26-4.67,8.26-13.22S289.66,39,284.29,39Z" transform="translate(-6.31 -11.6)"/><path class="cls-3" d="M308.77,67.61c-2.83-3.87-4.28-9-4.28-15.3s1.45-11.43,4.28-15.24a14,14,0,0,1,11.89-5.78,13.87,13.87,0,0,1,11.89,5.78c2.83,3.81,4.28,8.89,4.28,15.24s-1.45,11.43-4.28,15.3a15.22,15.22,0,0,1-23.78,0ZM320.66,39c-5.37,0-8.2,4.68-8.2,13.28s2.83,13.22,8.2,13.22,8.26-4.67,8.26-13.22S326,39,320.66,39Z" transform="translate(-6.31 -11.6)"/><path class="cls-3" d="M367,72.52,353.45,32.1h8.66L372,63.17l9.81-31.07h8.72L376.89,72.52Z" transform="translate(-6.31 -11.6)"/><path class="cls-3" d="M417.77,32.1h8V72.52h-6.06L402.35,47.81V72.52h-8V32.1h6.06l17.32,24.66Z" transform="translate(-6.31 -11.6)"/><path class="cls-3" d="M451.31,32.1a18.39,18.39,0,0,1,13.86,5.83,19.85,19.85,0,0,1,5.6,14.38,19.85,19.85,0,0,1-5.6,14.38,18.39,18.39,0,0,1-13.86,5.83H435.26V56.18h-3.4V49.54h3.4V32.1Zm0,32.8a11.22,11.22,0,0,0,8.55-3.47,12.81,12.81,0,0,0,3.29-9.12,12.55,12.55,0,0,0-3.29-9.06,11.06,11.06,0,0,0-8.55-3.53h-8.08v9.82h8.2v6.64h-8.2V64.9Z" transform="translate(-6.31 -11.6)"/><path class="cls-3" d="M66.92,67.61c-2.83-3.87-4.28-9-4.28-15.3s1.45-11.43,4.28-15.24a14,14,0,0,1,11.89-5.78A13.88,13.88,0,0,1,90.7,37.07C93.53,40.88,95,46,95,52.31s-1.45,11.43-4.28,15.3a14,14,0,0,1-11.89,5.72A14.09,14.09,0,0,1,66.92,67.61ZM78.81,39c-5.37,0-8.2,4.68-8.2,13.28s2.83,13.22,8.2,13.22S87,60.86,87,52.31,84.18,39,78.81,39Z" transform="translate(-6.31 -11.6)"/><path class="cls-3" d="M29.87,73.34V67.28L44,52.79c3.12-3.3,4.71-6.07,4.71-8.25a5.1,5.1,0,0,0-5.36-5.36c-3.12,0-5.42,1.59-6.89,4.83l-6.83-4a14.58,14.58,0,0,1,13.6-8.72,14,14,0,0,1,9.6,3.53,11.91,11.91,0,0,1,4,9.43c0,4.3-2.24,8.65-6.78,13.19L42,65.51H57.44v7.83Z" transform="translate(-6.31 -11.6)"/></svg>